<svg width="24" height="24" viewBox="0 0 24 24" fill="none" xmlns="http://www.w3.org/2000/svg">
<circle opacity="0.7" cx="12" cy="12" r="12" fill="#F3F3F3"/>
<g opacity="0.7">
<path fill-rule="evenodd" clip-rule="evenodd" d="M18.6669 8.30012C18.3223 8.75949 17.9059 9.16021 17.4335 9.48679C17.4335 9.60679 17.4335 9.72679 17.4335 9.85345C17.4354 10.9323 17.2226 12.0007 16.8076 12.9965C16.3926 13.9922 15.7836 14.8955 15.0162 15.6537C14.2487 16.4119 13.3381 17.0098 12.3373 17.4126C11.3365 17.8154 10.2656 18.0152 9.18687 18.0001C7.92716 18.0043 6.68358 17.7168 5.55354 17.1601C5.52373 17.1471 5.49837 17.1257 5.4806 17.0984C5.46283 17.0712 5.45343 17.0393 5.45354 17.0068V16.9335C5.45354 16.8875 5.4718 16.8434 5.50431 16.8109C5.53681 16.7784 5.5809 16.7601 5.62687 16.7601C6.86514 16.7193 8.05923 16.2902 9.04021 15.5335C8.49101 15.5224 7.95613 15.3563 7.49727 15.0543C7.03841 14.7524 6.67428 14.3268 6.44687 13.8268C6.43535 13.7994 6.43106 13.7695 6.43444 13.7399C6.43781 13.7104 6.44872 13.6822 6.46613 13.6581C6.48354 13.634 6.50686 13.6148 6.53384 13.6023C6.56082 13.5898 6.59056 13.5845 6.62021 13.5868C6.96084 13.621 7.30488 13.5893 7.63354 13.4935C7.03052 13.3683 6.48283 13.0549 6.06945 12.5984C5.65608 12.1419 5.39838 11.5659 5.33354 10.9535C5.33121 10.9238 5.33655 10.8941 5.34904 10.8671C5.36153 10.8401 5.38075 10.8168 5.40486 10.7994C5.42896 10.782 5.45714 10.7711 5.48668 10.7677C5.51622 10.7643 5.54613 10.7686 5.57354 10.7801C5.90557 10.9266 6.264 11.0037 6.62687 11.0068C6.09969 10.6609 5.7019 10.1502 5.49566 9.55439C5.28941 8.95857 5.28632 8.31122 5.48687 7.71345C5.5078 7.65474 5.54361 7.60246 5.59081 7.56174C5.63801 7.52102 5.69497 7.49325 5.75612 7.48115C5.81728 7.46906 5.88052 7.47305 5.93967 7.49273C5.99881 7.51242 6.05183 7.54712 6.09354 7.59345C7.55653 9.14977 9.5667 10.0772 11.7002 10.1801C11.6456 9.96216 11.6187 9.73816 11.6202 9.51345C11.63 8.93735 11.8107 8.37715 12.1395 7.90399C12.4683 7.43083 12.9303 7.06606 13.4669 6.85602C14.0034 6.64598 14.5903 6.60014 15.1529 6.72431C15.7155 6.84849 16.2286 7.13709 16.6269 7.55345C17.1821 7.44773 17.7189 7.26131 18.2202 7.00012C18.2382 6.98889 18.259 6.98294 18.2802 6.98294C18.3014 6.98294 18.3222 6.98889 18.3402 7.00012C18.3514 7.01812 18.3574 7.03891 18.3574 7.06012C18.3574 7.08134 18.3514 7.10212 18.3402 7.12012C18.0974 7.67586 17.6872 8.14197 17.1669 8.45345C17.6225 8.40064 18.0702 8.2932 18.5002 8.13345C18.5179 8.12142 18.5388 8.11498 18.5602 8.11498C18.5816 8.11498 18.6025 8.12142 18.6202 8.13345C18.6352 8.14031 18.6485 8.15034 18.6592 8.16287C18.6699 8.17539 18.6778 8.1901 18.6822 8.20596C18.6866 8.22183 18.6876 8.23847 18.6849 8.25473C18.6823 8.27099 18.6761 8.28648 18.6669 8.30012Z" fill="#252E39"/>
</g>
</svg>
