<svg width="24" height="24" viewBox="0 0 24 24" fill="none" xmlns="http://www.w3.org/2000/svg">
<circle opacity="0.7" cx="12" cy="12" r="11.5" fill="white" fill-opacity="0.01" stroke="#F3F3F3"/>
<g opacity="0.7">
<path fill-rule="evenodd" clip-rule="evenodd" d="M18.6666 8.3C18.3221 8.75937 17.9056 9.16008 17.4333 9.48667C17.4333 9.60667 17.4333 9.72667 17.4333 9.85333C17.4352 10.9321 17.2224 12.0005 16.8074 12.9963C16.3924 13.9921 15.7834 14.8954 15.0159 15.6536C14.2484 16.4117 13.3378 17.0096 12.337 17.4125C11.3363 17.8153 10.2653 18.015 9.18663 18C7.92691 18.0042 6.68333 17.7167 5.55329 17.16C5.52348 17.147 5.49813 17.1255 5.48036 17.0983C5.46259 17.071 5.45318 17.0392 5.45329 17.0067V16.9333C5.45329 16.8874 5.47156 16.8433 5.50406 16.8108C5.53657 16.7783 5.58066 16.76 5.62663 16.76C6.8649 16.7192 8.05899 16.2901 9.03996 15.5333C8.49077 15.5223 7.95588 15.3562 7.49703 15.0542C7.03817 14.7522 6.67403 14.3267 6.44663 13.8267C6.4351 13.7993 6.43082 13.7693 6.43419 13.7398C6.43756 13.7103 6.44848 13.6821 6.46589 13.658C6.4833 13.6339 6.50661 13.6147 6.53359 13.6022C6.56058 13.5897 6.59032 13.5843 6.61996 13.5867C6.9606 13.6209 7.30464 13.5892 7.63329 13.4933C7.03028 13.3682 6.48259 13.0548 6.06921 12.5983C5.65583 12.1418 5.39814 11.5658 5.33329 10.9533C5.33097 10.9237 5.33631 10.8939 5.3488 10.867C5.36129 10.84 5.38051 10.8167 5.40461 10.7993C5.42872 10.7819 5.45689 10.7709 5.48643 10.7676C5.51597 10.7642 5.54589 10.7685 5.57329 10.78C5.90533 10.9264 6.26375 11.0036 6.62663 11.0067C6.09944 10.6608 5.70166 10.1501 5.49541 9.55427C5.28917 8.95845 5.28608 8.31109 5.48663 7.71333C5.50755 7.65461 5.54337 7.60234 5.59057 7.56162C5.63777 7.52089 5.69473 7.49313 5.75588 7.48103C5.81703 7.46894 5.88028 7.47293 5.93942 7.49261C5.99857 7.5123 6.05159 7.547 6.09329 7.59333C7.55628 9.14965 9.56645 10.0771 11.7 10.18C11.6453 9.96204 11.6184 9.73804 11.62 9.51333C11.6297 8.93723 11.8105 8.37702 12.1393 7.90386C12.4681 7.43071 12.9301 7.06594 13.4666 6.8559C14.0032 6.64586 14.59 6.60001 15.1527 6.72419C15.7153 6.84837 16.2283 7.13697 16.6266 7.55333C17.1819 7.4476 17.7187 7.26118 18.22 7C18.238 6.98877 18.2587 6.98281 18.28 6.98281C18.3012 6.98281 18.322 6.98877 18.34 7C18.3512 7.018 18.3571 7.03878 18.3571 7.06C18.3571 7.08121 18.3512 7.102 18.34 7.12C18.0972 7.67573 17.687 8.14185 17.1666 8.45333C17.6223 8.40052 18.07 8.29308 18.5 8.13333C18.5177 8.12129 18.5386 8.11486 18.56 8.11486C18.5814 8.11486 18.6023 8.12129 18.62 8.13333C18.6349 8.14018 18.6483 8.15022 18.659 8.16274C18.6697 8.17527 18.6775 8.18997 18.682 8.20584C18.6864 8.22171 18.6873 8.23835 18.6847 8.25461C18.682 8.27087 18.6759 8.28636 18.6666 8.3Z" fill="#F3F3F3"/>
</g>
</svg>
