<svg width="24" height="24" viewBox="0 0 24 24" fill="none" xmlns="http://www.w3.org/2000/svg">
<circle opacity="0.7" cx="12" cy="12" r="11.5" fill="white" fill-opacity="0.01" stroke="#F3F3F3"/>
<g opacity="0.7">
<path d="M12 6C10.8133 6 9.65328 6.35189 8.66658 7.01118C7.67989 7.67047 6.91085 8.60754 6.45673 9.7039C6.0026 10.8003 5.88378 12.0067 6.11529 13.1705C6.3468 14.3344 6.91825 15.4035 7.75736 16.2426C8.59648 17.0818 9.66558 17.6532 10.8295 17.8847C11.9933 18.1162 13.1997 17.9974 14.2961 17.5433C15.3925 17.0892 16.3295 16.3201 16.9888 15.3334C17.6481 14.3467 18 13.1867 18 12C18 10.4087 17.3679 8.88258 16.2426 7.75736C15.1174 6.63214 13.5913 6 12 6V6ZM16.6133 11.3333H14.9C14.8629 10.1315 14.5958 8.94798 14.1133 7.84667C14.7785 8.1855 15.3528 8.67898 15.7878 9.28567C16.2228 9.89237 16.5059 10.5946 16.6133 11.3333V11.3333ZM12.3 16.6667H12H11.7C11.0933 16.2867 10.3667 14.8267 10.2733 12.6667H13.7267C13.6067 14.8133 12.9067 16.2733 12.3 16.6667V16.6667ZM10.3 11.3333C10.42 9.18667 11.12 7.72667 11.7267 7.33333H12H12.3C12.9067 7.71333 13.6333 9.17333 13.7267 11.3333H10.3ZM9.88667 7.84667C9.40418 8.94798 9.13714 10.1315 9.1 11.3333H7.38667C7.49411 10.5946 7.77722 9.89237 8.21223 9.28567C8.64724 8.67898 9.22146 8.1855 9.88667 7.84667V7.84667ZM7.38667 12.6667H9.1C9.13714 13.8685 9.40418 15.052 9.88667 16.1533C9.22146 15.8145 8.64724 15.321 8.21223 14.7143C7.77722 14.1076 7.49411 13.4054 7.38667 12.6667V12.6667ZM14.1133 16.1533C14.5958 15.052 14.8629 13.8685 14.9 12.6667H16.6133C16.5059 13.4054 16.2228 14.1076 15.7878 14.7143C15.3528 15.321 14.7785 15.8145 14.1133 16.1533V16.1533Z" fill="#F3F3F3"/>
</g>
</svg>
