<svg width="190" height="44" viewBox="0 0 190 44" fill="none" xmlns="http://www.w3.org/2000/svg">
<rect opacity="0.1" width="190" height="44" rx="22" fill="white"/>
<g opacity="0.7" clip-path="url(#clip0_534:4044)">
<path fill-rule="evenodd" clip-rule="evenodd" d="M65.0677 19.367C63.9023 18.2271 62.3747 17.6488 60.527 17.6488C58.5805 17.6488 56.9949 18.2679 55.8139 19.4873C54.6302 20.7106 54.0291 22.3901 54.0291 24.4789C54.0291 26.6018 54.6302 28.2942 55.8149 29.5082C56.9952 30.7197 58.6205 31.3342 60.6457 31.3342C62.2227 31.3342 63.5811 30.9338 64.6848 30.1442C65.8105 29.3374 66.4768 28.2702 66.6653 26.9728C66.6796 26.8725 66.6526 26.7715 66.5909 26.6942C66.5295 26.6176 66.4398 26.5731 66.3454 26.5731H62.783C62.6546 26.5731 62.5388 26.6534 62.4868 26.7787C62.225 27.4104 61.623 27.7166 60.6457 27.7166C59.9216 27.7166 59.3456 27.5232 58.934 27.1411C58.6362 26.8654 58.3987 26.2462 58.3147 25.5636H66.4161C66.5822 25.5636 66.7207 25.4304 66.738 25.2546L66.7607 25.0319L66.7611 25.0275C66.8089 24.5622 66.8354 24.3038 66.8354 23.8433C66.8354 22.0213 66.2404 20.5151 65.0677 19.367ZM77.3511 18.7435C76.5386 18.0377 75.1218 17.6488 73.3598 17.6488C71.8062 17.6488 70.5418 18.0362 69.6025 18.8004C68.6346 19.5861 68.1447 20.6239 68.1447 21.8855C68.1447 22.847 68.4185 23.6761 68.9592 24.3486C69.4911 25.0111 70.2663 25.4838 71.2618 25.7552L74.0712 26.5198C74.4784 26.6197 74.6512 26.831 74.6512 27.2242C74.6512 27.4727 74.5745 27.6525 74.409 27.7904C74.2223 27.9443 73.9661 28.0228 73.6446 28.0228C73.1633 28.0228 72.7717 27.9078 72.4816 27.6826C72.2164 27.4756 72.0923 27.2331 72.0923 26.9194C72.0923 26.7282 71.9476 26.5731 71.7692 26.5731H68.1597C67.9802 26.5731 67.8358 26.7282 67.8358 26.9194C67.8358 28.2183 68.3761 29.2958 69.4411 30.1238C70.475 30.927 71.8649 31.3342 73.5742 31.3342C75.1935 31.3342 76.4966 30.9188 77.4455 30.1009C78.4161 29.264 78.9081 28.1424 78.9081 26.7672C78.9081 25.8329 78.6189 25.0301 78.0482 24.3812C77.4935 23.7506 76.7268 23.2947 75.7725 23.0261L73.0636 22.2376C72.4132 22.0506 72.3298 21.7333 72.3298 21.4784C72.3298 21.2836 72.3992 21.1421 72.5536 21.0203C72.7331 20.8796 72.9892 20.8076 73.3124 20.8076C73.7256 20.8076 74.0448 20.9022 74.2613 21.0884C74.4631 21.2603 74.5565 21.4898 74.5565 21.8089C74.5565 22.0008 74.7012 22.1555 74.8803 22.1555H78.4661C78.6446 22.1555 78.7893 22.0008 78.7893 21.8089C78.7893 20.586 78.3187 19.5836 77.3511 18.7435ZM38.0552 14.6522C38.0552 14.4606 37.9104 14.3059 37.7316 14.3059H34.1155C34.0458 14.3059 33.9851 14.3342 33.932 14.3746C34.3046 14.7596 34.6338 15.1976 34.9036 15.69C35.6667 17.083 35.8855 18.7099 35.5203 20.2716C35.3876 20.8385 35.1801 21.3814 34.9026 21.8859C34.6001 22.436 34.2225 22.9187 33.7923 23.3302V30.7279C33.7923 30.9192 33.9194 31.0742 34.0985 31.0742H37.7316C37.9104 31.0742 38.0552 30.9192 38.0552 30.7279V29.9043C38.3203 30.1854 38.6352 30.4357 38.998 30.6538C39.6928 31.0717 40.4896 31.2834 41.3648 31.2834C43.0371 31.2834 44.4213 30.6413 45.4776 29.375C46.5245 28.1206 47.0555 26.4729 47.0555 24.4786C47.0555 22.4689 46.5372 20.8184 45.5146 19.5718C44.481 18.3131 43.1172 17.6742 41.4602 17.6742C40.5863 17.6742 39.7762 17.8844 39.0514 18.3002C38.6649 18.5215 38.3317 18.7797 38.0552 19.0723V14.6522ZM23.0853 14.632C23.0853 14.4415 22.9405 14.2861 22.7621 14.2861H19.1289C18.9498 14.2861 18.8051 14.4415 18.8051 14.632V17.922H17.3235C17.1444 17.922 17 18.0777 17 18.2686V21.3451C17 21.5367 17.1444 21.691 17.3235 21.691H18.8051V26.2272C18.8051 27.0419 18.9028 27.7635 19.0949 28.3719C19.29 28.9893 19.5318 29.4745 19.8127 29.8129C20.0965 30.1549 20.4634 30.4288 20.9026 30.6265C21.3222 30.8152 21.7075 30.9391 22.0487 30.9932C22.3789 31.0466 22.7628 31.0738 23.1893 31.0738C24.1216 31.0738 24.9561 31.0029 25.6698 30.8643C25.8232 30.8342 25.935 30.6906 25.935 30.5234V27.4211C25.935 27.3212 25.8946 27.2256 25.8236 27.1597C25.7525 27.0938 25.6588 27.0634 25.5657 27.078C25.2492 27.1271 24.8413 27.1522 24.353 27.1522C23.9201 27.1522 23.5962 27.044 23.3911 26.8309C23.2517 26.6852 23.0853 26.3214 23.0853 25.4128V21.691H24.9531C24.37 20.5372 24.1499 19.2147 24.322 17.922H23.0853V14.632ZM52.6445 14.6777C52.6445 14.5151 52.5207 14.3823 52.3693 14.3823H48.5791C48.4273 14.3823 48.3036 14.5151 48.3036 14.6777V30.7771C48.3036 30.9397 48.4273 31.0729 48.5791 31.0729H52.3693C52.5207 31.0729 52.6445 30.9397 52.6445 30.7771V14.6777ZM27.8938 24.4525C27.7904 24.4163 27.706 24.483 27.706 24.5993V30.8612C27.706 30.9776 27.7947 31.0728 27.9031 31.0728H31.8495C31.9585 31.0728 32.0469 30.9776 32.0469 30.8612V24.6921C32.0469 24.5757 31.9615 24.5066 31.8575 24.5388C31.8575 24.5388 30.7108 24.8941 29.9824 24.8941C29.1729 24.8941 27.8938 24.4525 27.8938 24.4525ZM38.5641 22.3984C39.0104 21.8755 39.5847 21.6216 40.3205 21.6216C41.0229 21.6216 41.5819 21.8763 42.0288 22.3991C42.4828 22.9309 42.7039 23.6113 42.7039 24.4786C42.7039 25.3474 42.4824 26.0324 42.0275 26.5732C41.5806 27.1032 41.0222 27.361 40.3205 27.361C39.5994 27.361 39.0284 27.1068 38.5745 26.5821C38.1132 26.0507 37.8891 25.3621 37.8891 24.4786C37.8891 23.6113 38.1095 22.9309 38.5641 22.3984ZM31.0505 14.1861C30.691 14.0894 30.3304 14.0432 29.9756 14.0432C27.9921 14.0432 26.1823 15.4824 25.6793 17.6336C25.6567 17.7296 25.6383 17.8259 25.6216 17.9219C25.4239 19.0606 25.6287 20.1926 26.135 21.1387C26.713 22.2195 27.6839 23.0578 28.8996 23.3837C30.8467 23.9065 32.8216 22.9522 33.7922 21.1867C33.9754 20.8527 34.1235 20.4907 34.2282 20.1036L34.2704 19.9366C34.5633 18.6843 34.3585 17.4219 33.7922 16.3877C33.2111 15.3277 32.2496 14.5073 31.0505 14.1861ZM58.887 21.5371C59.2799 21.1321 59.8086 20.9351 60.503 20.9351C61.186 20.9351 61.708 21.1231 62.0552 21.4945C62.3487 21.8089 62.5222 22.2333 62.5805 22.7847H58.3117C58.378 22.278 58.5675 21.8676 58.887 21.5371ZM32.6415 18.3409C32.7966 18.1364 33.1011 18.237 33.1244 18.4991C33.1931 19.2605 33.017 20.0347 32.6098 20.6875C31.79 22.0011 30.1297 22.573 28.7955 21.9051C27.8353 21.4245 27.36 20.6295 27.1382 20.0734C27.0445 19.8395 27.2553 19.5996 27.4794 19.6852C28.0761 19.9137 29.1431 20.1787 30.4318 19.8696C31.32 19.6562 32.0735 19.0904 32.6415 18.3409ZM28.0654 17.2583C29.0257 16.9546 29.4436 17.9874 29.1711 18.0554C29.0792 18.0867 28.9585 18.0757 28.8299 18.0639C28.658 18.0482 28.4722 18.0312 28.3226 18.1124C28.1578 18.1396 28.0163 18.269 27.8853 18.3888C27.7873 18.4784 27.6952 18.5627 27.6035 18.5947C27.3447 18.7086 27.1239 17.6114 28.0654 17.2583ZM31.0138 16.5152C32.0054 16.3684 32.2753 17.4567 31.9958 17.4803C31.9007 17.4964 31.7832 17.4662 31.658 17.434C31.4901 17.3909 31.3085 17.3442 31.1489 17.4008C30.982 17.4016 30.8241 17.5069 30.678 17.6043C30.5686 17.6772 30.4659 17.7456 30.3711 17.7625C30.099 17.8338 30.0333 16.7136 31.0138 16.5152ZM81.3406 19.5223H81.6871V19.2305H80.6239V19.5223H80.9705V20.4192H81.3406V19.5223ZM83.2819 20.4192V19.2305H82.747L82.6023 19.7348L82.5552 19.9653H82.5451L82.4946 19.7348L82.3533 19.2305H81.8049V20.4192H82.175V19.9869L82.1582 19.6015H82.1683L82.2457 19.9041L82.3937 20.4192H82.6965L82.8446 19.9077L82.9219 19.6015H82.932L82.9152 19.9869V20.4192H83.2819Z" fill="white"/>
</g>
<rect opacity="0.23" x="94.8093" y="14.7635" width="0.720457" height="17.291" fill="white"/>
<g opacity="0.7" clip-path="url(#clip1_534:4044)">
<path d="M145.081 22.7756H143.3V29.4176H140.814V22.7756H139.53V20.6463H140.814V19.8178C140.814 17.6719 142.153 16.5699 144.189 16.5699C144.504 16.5726 144.818 16.6096 145.125 16.6804V19.166C144.857 19.0585 144.571 19.0023 144.283 19.0003C144.152 18.9899 144.021 19.008 143.898 19.0531C143.776 19.0983 143.664 19.1695 143.571 19.2619C143.479 19.3542 143.407 19.4656 143.362 19.5883C143.316 19.7109 143.298 19.842 143.308 19.9724V20.6325H145.089L145.081 22.7756ZM148.823 29.4176H146.31V16.7577H148.823V29.4176Z" fill="#F3F3F3"/>
<path d="M154.402 20.098C155.344 20.0964 156.266 20.3744 157.05 20.897C157.834 21.4195 158.446 22.163 158.807 23.0334C159.169 23.9037 159.264 24.8618 159.08 25.7861C158.897 26.7105 158.443 27.5596 157.777 28.226C157.11 28.8924 156.261 29.346 155.337 29.5295C154.413 29.7129 153.455 29.6179 152.584 29.2565C151.714 28.8951 150.97 28.2836 150.448 27.4993C149.925 26.7151 149.647 25.7934 149.649 24.851C149.641 24.2247 149.759 23.6031 149.995 23.0229C150.231 22.4428 150.581 21.9157 151.024 21.4728C151.466 21.0299 151.994 20.6801 152.574 20.444C153.154 20.2079 153.775 20.0902 154.402 20.098ZM154.402 27.1819C155.686 27.1819 156.611 26.1159 156.611 24.851C156.625 24.5524 156.578 24.254 156.473 23.9741C156.368 23.6941 156.208 23.4383 156.001 23.2222C155.795 23.0061 155.547 22.8342 155.272 22.7168C154.997 22.5994 154.701 22.5391 154.402 22.5394C153.8 22.5602 153.23 22.8138 152.811 23.2469C152.393 23.6799 152.159 24.2585 152.159 24.8607C152.159 25.4628 152.393 26.0414 152.811 26.4745C153.23 26.9075 153.8 27.1612 154.402 27.1819Z" fill="#F3F3F3"/>
<path d="M161.779 20.282L163.394 26.3578L165.01 21.5303L164.568 20.2847H167.054L169.183 26.3606L170.76 20.2847H173.339L170.625 29.4206H168.018L166.2 24.4108L164.502 29.4179H161.878L159.18 20.282H161.779Z" fill="#F3F3F3"/>
<path fill-rule="evenodd" clip-rule="evenodd" d="M134.675 22.8088C134.675 30.4351 128.492 36.6175 120.866 36.6175C113.24 36.6175 107.057 30.4351 107.057 22.8088C107.057 15.1824 113.24 9 120.866 9C128.492 9 134.675 15.1824 134.675 22.8088ZM123.025 20.6492H126.925V24.5488H123.026V26.0098C123.026 27.07 122.711 28.1064 122.122 28.988C121.533 29.8695 120.696 30.5566 119.717 30.9623C118.737 31.368 117.659 31.4742 116.62 31.2674C115.58 31.0605 114.624 30.55 113.875 29.8003C113.125 29.0506 112.615 28.0954 112.408 27.0556C112.201 26.0157 112.307 24.9379 112.713 23.9584C113.119 22.9789 113.806 22.1417 114.687 21.5527C115.569 20.9636 116.605 20.6492 117.665 20.6492H119.129V24.5461H117.665C117.376 24.5461 117.093 24.6319 116.852 24.7928C116.611 24.9536 116.424 25.1822 116.313 25.4497C116.202 25.7171 116.173 26.0114 116.23 26.2954C116.286 26.5793 116.426 26.8401 116.63 27.0448C116.835 27.2495 117.096 27.3889 117.38 27.4454C117.664 27.5019 117.958 27.4729 118.225 27.3621C118.493 27.2513 118.722 27.0637 118.882 26.823C119.043 26.5823 119.129 26.2993 119.129 26.0098V24.5461H123.025V20.6492ZM128.875 18.6988H124.489C124.102 18.6988 123.73 18.8526 123.455 19.1265C123.181 19.4004 123.026 19.772 123.026 20.1597V20.6486H119.129V20.1597C119.13 18.7385 119.696 17.3758 120.701 16.3709C121.706 15.3659 123.068 14.8006 124.489 14.7992H128.875V18.6988Z" fill="#F3F3F3"/>
</g>
<defs>
<clipPath id="clip0_534:4044">
<rect width="66.282" height="17.291" fill="white" transform="translate(17 14.0432)"/>
</clipPath>
<clipPath id="clip1_534:4044">
<rect width="66.282" height="27.6175" fill="white" transform="translate(107.057 9)"/>
</clipPath>
</defs>
</svg>
