<svg width="245" height="45" viewBox="0 0 245 45" fill="none" xmlns="http://www.w3.org/2000/svg">
<g opacity="0.7" clip-path="url(#clip0_595:4467)">
<path fill-rule="evenodd" clip-rule="evenodd" d="M66.7183 19.3894C65.1008 17.8073 62.9805 17.0045 60.4158 17.0045C57.7141 17.0045 55.5132 17.864 53.874 19.5564C52.231 21.2544 51.3967 23.5856 51.3967 26.4849C51.3967 29.4314 52.231 31.7805 53.8753 33.4655C55.5137 35.1471 57.7696 36 60.5806 36C62.7694 36 64.655 35.4443 66.1869 34.3483C67.7493 33.2284 68.6743 31.7472 68.9358 29.9464C68.9557 29.8072 68.9182 29.667 68.8326 29.5597C68.7474 29.4533 68.6229 29.3917 68.4919 29.3917H63.5472C63.3689 29.3917 63.2083 29.503 63.1361 29.677C62.7727 30.5538 61.9371 30.9788 60.5806 30.9788C59.5756 30.9788 58.7761 30.7103 58.2048 30.18C57.7914 29.7973 57.4618 28.9378 57.3451 27.9905H68.59C68.8206 27.9905 69.0127 27.8056 69.0368 27.5615L69.0682 27.2523L69.0689 27.2461C69.1351 26.6004 69.1719 26.2418 69.1719 25.6026C69.1719 23.0736 68.3461 20.983 66.7183 19.3894ZM83.7679 18.524C82.6401 17.5443 80.6736 17.0045 78.2278 17.0045C76.0714 17.0045 74.3164 17.5424 73.0128 18.6031C71.6693 19.6936 70.9892 21.1341 70.9892 22.8852C70.9892 24.2198 71.3693 25.3705 72.1197 26.3039C72.8581 27.2235 73.934 27.8796 75.3159 28.2564L79.2153 29.3176C79.7805 29.4563 80.0203 29.7495 80.0203 30.2953C80.0203 30.6403 79.9139 30.8898 79.6842 31.0811C79.425 31.2949 79.0695 31.4037 78.6232 31.4037C77.9551 31.4037 77.4117 31.2442 77.0089 30.9315C76.6409 30.6442 76.4686 30.3077 76.4686 29.8723C76.4686 29.6069 76.2677 29.3917 76.02 29.3917H71.0101C70.761 29.3917 70.5605 29.6069 70.5605 29.8723C70.5605 31.6751 71.3105 33.1708 72.7887 34.32C74.2238 35.4348 76.1529 36 78.5255 36C80.7731 36 82.5818 35.4234 83.8989 34.2881C85.2461 33.1265 85.9289 31.5697 85.9289 29.6611C85.9289 28.3642 85.5275 27.2498 84.7354 26.3492C83.9655 25.4739 82.9012 24.8411 81.5768 24.4683L77.8167 23.3738C76.914 23.1143 76.7982 22.674 76.7982 22.3201C76.7982 22.0497 76.8945 21.8533 77.1089 21.6843C77.3579 21.489 77.7135 21.3891 78.1621 21.3891C78.7357 21.3891 79.1787 21.5203 79.4792 21.7788C79.7592 22.0173 79.8889 22.336 79.8889 22.7788C79.8889 23.0453 80.0898 23.26 80.3384 23.26H85.3155C85.5632 23.26 85.7641 23.0453 85.7641 22.7788C85.7641 21.0814 85.1109 19.6901 83.7679 18.524ZM29.2247 12.8452C29.2247 12.5793 29.0238 12.3646 28.7757 12.3646H23.7564C23.6597 12.3646 23.5754 12.4039 23.5018 12.46C24.0189 12.9944 24.4759 13.6023 24.8504 14.2857C25.9096 16.2193 26.2133 18.4774 25.7064 20.645C25.5221 21.4319 25.2342 22.1854 24.849 22.8858C24.4291 23.6492 23.905 24.3193 23.3078 24.8904V35.1585C23.3078 35.424 23.4842 35.6392 23.7328 35.6392H28.7757C29.0238 35.6392 29.2247 35.424 29.2247 35.1585V34.0153C29.5928 34.4055 30.0298 34.7529 30.5335 35.0556C31.4978 35.6357 32.6038 35.9295 33.8185 35.9295C36.1397 35.9295 38.0609 35.0382 39.5271 33.2807C40.9803 31.5395 41.7173 29.2525 41.7173 26.4844C41.7173 23.695 40.9979 21.404 39.5785 19.6738C38.1438 17.9266 36.2508 17.0399 33.9509 17.0399C32.738 17.0399 31.6135 17.3317 30.6075 17.9087C30.071 18.2159 29.6085 18.5743 29.2247 18.9804V12.8452ZM8.44641 12.8173C8.44641 12.5529 8.2455 12.3372 7.99782 12.3372H2.95497C2.70637 12.3372 2.50545 12.5529 2.50545 12.8173V17.3838H0.449056C0.200455 17.3838 0 17.6 0 17.8649V22.1351C0 22.401 0.200455 22.6153 0.449056 22.6153H2.50545V28.9114C2.50545 30.0422 2.6411 31.0438 2.90775 31.8883C3.17857 32.7452 3.51421 33.4187 3.90401 33.8885C4.29797 34.3631 4.80721 34.7434 5.41691 35.0178C5.99929 35.2797 6.53399 35.4517 7.00758 35.5268C7.4659 35.6008 7.99875 35.6386 8.59085 35.6386C9.88478 35.6386 11.0431 35.5402 12.0338 35.3478C12.2467 35.3061 12.4018 35.1067 12.4018 34.8746V30.5686C12.4018 30.43 12.3458 30.2972 12.2472 30.2058C12.1486 30.1143 12.0185 30.0721 11.8893 30.0925C11.45 30.1605 10.8838 30.1953 10.2061 30.1953C9.60516 30.1953 9.15564 30.0452 8.87093 29.7495C8.67742 29.5472 8.44641 29.0422 8.44641 27.7811V22.6153H11.0389C10.2297 21.0137 9.92413 19.1781 10.163 17.3838H8.44641V12.8173ZM49.4748 12.8807C49.4748 12.655 49.3031 12.4706 49.0929 12.4706H43.832C43.6214 12.4706 43.4496 12.655 43.4496 12.8807V35.2268C43.4496 35.4524 43.6214 35.6373 43.832 35.6373H49.0929C49.3031 35.6373 49.4748 35.4524 49.4748 35.2268V12.8807ZM15.1207 26.4482C14.9772 26.398 14.86 26.4904 14.86 26.652V35.3435C14.86 35.505 14.9832 35.6372 15.1336 35.6372H20.6112C20.7626 35.6372 20.8853 35.505 20.8853 35.3435V26.7807C20.8853 26.6192 20.7667 26.5232 20.6223 26.568C20.6223 26.568 19.0307 27.0611 18.0196 27.0611C16.8961 27.0611 15.1207 26.4482 15.1207 26.4482ZM29.9312 23.597C30.5506 22.8713 31.3478 22.5189 32.369 22.5189C33.344 22.5189 34.1199 22.8723 34.7402 23.598C35.3703 24.3362 35.6772 25.2806 35.6772 26.4844C35.6772 27.6903 35.3699 28.6412 34.7384 29.3917C34.1181 30.1273 33.3431 30.4852 32.369 30.4852C31.3682 30.4852 30.5756 30.1323 29.9455 29.4041C29.3053 28.6665 28.9942 27.7107 28.9942 26.4844C28.9942 25.2806 29.3002 24.3362 29.9312 23.597ZM19.5023 12.1983C19.0032 12.0641 18.5028 12 18.0102 12C15.2571 12 12.7451 13.9977 12.047 16.9835C12.0155 17.1167 11.9901 17.2504 11.9669 17.3836C11.6924 18.9642 11.9766 20.5354 12.6794 21.8486C13.4817 23.3488 14.8293 24.5124 16.5167 24.9647C19.2194 25.6904 21.9605 24.3657 23.3077 21.9153C23.562 21.4516 23.7675 20.9492 23.9129 20.4119L23.9715 20.18C24.378 18.4418 24.0937 16.6897 23.3077 15.2542C22.5012 13.7829 21.1665 12.6442 19.5023 12.1983ZM58.1395 22.4016C58.6849 21.8394 59.4186 21.566 60.3825 21.566C61.3306 21.566 62.0551 21.827 62.537 22.3424C62.9444 22.7788 63.1851 23.3678 63.2662 24.1333H57.3409C57.4331 23.43 57.696 22.8604 58.1395 22.4016ZM21.7105 17.9652C21.9258 17.6813 22.3484 17.821 22.3808 18.1849C22.4762 19.2416 22.2318 20.3162 21.6665 21.2224C20.5286 23.0456 18.2241 23.8394 16.3723 22.9123C15.0395 22.2453 14.3798 21.1418 14.0719 20.3699C13.9418 20.0453 14.2344 19.7123 14.5455 19.8311C15.3737 20.1482 16.8547 20.516 18.6435 20.0871C19.8763 19.7908 20.9221 19.0055 21.7105 17.9652ZM15.3589 16.4626C16.6917 16.0411 17.2718 17.4746 16.8936 17.569C16.766 17.6124 16.5984 17.5971 16.42 17.5808C16.1815 17.559 15.9235 17.5354 15.7158 17.648C15.4871 17.6858 15.2907 17.8654 15.109 18.0317C14.9729 18.1561 14.845 18.2731 14.7177 18.3176C14.3585 18.4756 14.052 16.9527 15.3589 16.4626ZM19.4513 15.4312C20.8277 15.2274 21.2022 16.7379 20.8142 16.7707C20.6823 16.793 20.5192 16.7511 20.3454 16.7065C20.1124 16.6466 19.8603 16.5818 19.6388 16.6604C19.4072 16.6615 19.1879 16.8077 18.9852 16.9428C18.8334 17.044 18.6908 17.139 18.5592 17.1624C18.1815 17.2613 18.0903 15.7065 19.4513 15.4312ZM89.3054 19.605H89.7864V19.2H88.3107V19.605H88.7917V20.85H89.3054V19.605ZM92 20.85V19.2H91.2575L91.0567 19.9L90.9913 20.22H90.9773L90.9072 19.9L90.7111 19.2H89.9499V20.85H90.4636V20.25L90.4402 19.715H90.4542L90.5616 20.135L90.7671 20.85H91.1874L91.3929 20.14L91.5003 19.715H91.5143L91.491 20.25V20.85H92Z" fill="white"/>
</g>
<rect opacity="0.7" x="114" y="12" width="1" height="24" fill="white"/>
<g opacity="0.7" clip-path="url(#clip1_595:4467)">
<path d="M198.956 22.446H196.054V33.2685H192.004V22.446H189.911V18.9765H192.004V17.6265C192.004 14.13 194.186 12.3345 197.503 12.3345C198.016 12.3388 198.528 12.3991 199.028 12.5145V16.5645C198.592 16.3894 198.126 16.2978 197.656 16.2945C197.443 16.2776 197.229 16.307 197.029 16.3805C196.829 16.4541 196.648 16.5702 196.497 16.7207C196.346 16.8712 196.229 17.0526 196.155 17.2525C196.081 17.4524 196.051 17.6659 196.067 17.8785V18.954H198.97L198.956 22.446ZM205.054 33.2685H200.959V12.6405H205.054V33.2685Z" fill="#F3F3F3"/>
<path d="M214.143 18.0831C215.679 18.0804 217.18 18.5335 218.458 19.3849C219.736 20.2364 220.733 21.4479 221.321 22.866C221.91 24.2842 222.065 25.8451 221.766 27.3513C221.467 28.8575 220.728 30.2411 219.642 31.3268C218.556 32.4126 217.173 33.1518 215.667 33.4507C214.161 33.7496 212.6 33.5948 211.181 33.006C209.763 32.4171 208.552 31.4207 207.7 30.1428C206.849 28.8649 206.396 27.3631 206.399 25.8276C206.386 24.8071 206.578 23.7943 206.962 22.849C207.347 21.9036 207.917 21.0448 208.639 20.3232C209.36 19.6015 210.219 19.0315 211.164 18.6468C212.11 18.2621 213.123 18.0704 214.143 18.0831V18.0831ZM214.143 29.6256C216.236 29.6256 217.743 27.8886 217.743 25.8276C217.766 25.341 217.689 24.8549 217.518 24.3988C217.348 23.9426 217.086 23.5258 216.749 23.1737C216.413 22.8216 216.008 22.5414 215.56 22.3502C215.112 22.1589 214.63 22.0606 214.143 22.0611C213.163 22.0949 212.233 22.5082 211.552 23.2139C210.87 23.9195 210.489 24.8622 210.489 25.8434C210.489 26.8245 210.87 27.7673 211.552 28.4729C212.233 29.1785 213.163 29.5918 214.143 29.6256Z" fill="#F3F3F3"/>
<path d="M226.163 18.3831L228.796 28.2831L231.428 20.4171L230.708 18.3876H234.758L238.228 28.2876L240.797 18.3876H245L240.577 33.2736H236.329L233.368 25.1106L230.6 33.2691H226.325L221.929 18.3831H226.163Z" fill="#F3F3F3"/>
<path fill-rule="evenodd" clip-rule="evenodd" d="M182 22.5C182 34.9264 171.926 45 159.5 45C147.074 45 137 34.9264 137 22.5C137 10.0736 147.074 0 159.5 0C171.926 0 182 10.0736 182 22.5ZM163.018 18.9814H169.372V25.3354H163.019V27.7159C163.019 29.4434 162.507 31.1321 161.547 32.5685C160.587 34.0049 159.223 35.1244 157.627 35.7855C156.031 36.4466 154.275 36.6196 152.581 36.2826C150.886 35.9455 149.33 35.1137 148.108 33.8921C146.887 32.6706 146.055 31.1142 145.718 29.4199C145.381 27.7256 145.554 25.9694 146.215 24.3733C146.876 22.7773 147.996 21.4132 149.432 20.4534C150.868 19.4937 152.557 18.9814 154.285 18.9814H156.67V25.3309H154.285C153.813 25.3309 153.352 25.4708 152.96 25.7328C152.567 25.9949 152.262 26.3674 152.081 26.8032C151.901 27.239 151.853 27.7185 151.946 28.1812C152.038 28.6438 152.265 29.0688 152.598 29.4023C152.932 29.7359 153.357 29.963 153.819 30.0551C154.282 30.1471 154.762 30.0999 155.197 29.9193C155.633 29.7388 156.006 29.4331 156.268 29.0409C156.53 28.6487 156.67 28.1876 156.67 27.7159V25.3309H163.018V18.9814ZM172.55 15.8032H165.404C164.773 15.8032 164.167 16.0538 163.72 16.5001C163.272 16.9464 163.021 17.5519 163.019 18.1837V18.9802H156.67V18.1837C156.672 15.8679 157.593 13.6476 159.231 12.0101C160.868 10.3726 163.089 9.45157 165.404 9.44918H172.55V15.8032Z" fill="#F3F3F3"/>
</g>
<defs>
<clipPath id="clip0_595:4467">
<rect width="92" height="24" fill="white" transform="translate(0 12)"/>
</clipPath>
<clipPath id="clip1_595:4467">
<rect width="108" height="45" fill="white" transform="translate(137)"/>
</clipPath>
</defs>
</svg>
