<svg width="462" height="111" viewBox="0 0 462 111" fill="none" xmlns="http://www.w3.org/2000/svg">
<path d="M461.04 0H21.89L20.97 4.67993L1.36005 103.99L0 110.91H439.15L440.07 106.23L459.67 6.91992L461.04 0Z" fill="#252E39"/>
<path fill-rule="evenodd" clip-rule="evenodd" d="M434.38 105.11L453.98 5.79993H26.66L7.06 105.11H434.38ZM21.89 0H461.04L459.67 6.91992L440.07 106.23L439.15 110.91H0L1.36005 103.99L20.97 4.67993L21.89 0ZM226.02 34.0399C229.274 33.9841 232.489 34.7475 235.37 36.2599L242.41 23.22C237.69 20.54 231.95 19.33 225 19.33C207.96 19.33 197.31 30.2599 197.31 43.5099C197.31 52.2661 203.361 56.157 208.13 59.2233C211.231 61.2171 213.79 62.8623 213.79 65.2699C213.79 67.3099 211.85 69.4399 207.31 69.4399C203.581 69.3987 199.921 68.4296 196.66 66.62L188.79 81.2599C193.88 83.8699 200.18 85.2599 208.24 85.2599C225.65 85.2599 236.39 73.78 236.39 60.34C236.39 51.2171 229.906 47.4628 224.872 44.5484C221.679 42.6996 219.07 41.1888 219.07 38.86C219.07 36.04 221.76 34.0399 226.02 34.0399ZM263 85.2599H280.94L291.35 32.0599H273.41L269.41 52.6299H262.41L266.41 32.0599H248.47L238.11 85.2599H256L260.1 64.2599H267.1L263 85.2599ZM308.21 85.2599C295.99 85.2599 290.12 77.1399 290.12 65.5399C290.12 52.2399 296.61 30.21 318.26 30.21C330.48 30.21 336.36 38.32 336.36 49.85C336.4 62.99 330.13 85.2599 308.21 85.2599ZM316.21 42.2599C314.28 42.2599 312.81 43.9599 311.57 47.1299C309.79 51.7699 307.63 62.52 307.63 67.47C307.63 70.71 308.4 72.4099 310.34 72.4099C312.28 72.4099 313.89 70.4799 315.21 66.9199C316.99 61.9199 318.92 51.61 318.92 47.21C319 43.97 318.21 42.2699 316.29 42.2699L316.21 42.2599ZM365.3 44.0499H373.3L375.54 32.0499H341.68L339.36 44.0499H347.36L339.36 85.2599H357.3L365.3 44.0499ZM407.21 44.36C404.804 43.0937 402.118 42.454 399.4 42.5C395.84 42.5 393.6 44.12 393.6 46.5C393.6 48.4395 395.776 49.7004 398.439 51.244C402.642 53.6797 408.06 56.8193 408.06 64.4399C408.06 75.6499 399.06 85.24 384.55 85.24C377.82 85.24 372.55 84.0799 368.31 81.9199L374.89 69.7C377.617 71.1927 380.671 71.9896 383.78 72.0199C387.57 72.0199 389.19 70.2399 389.19 68.5399C389.19 66.5303 387.053 65.1557 384.464 63.4899C380.482 60.9282 375.43 57.6778 375.43 50.37C375.43 39.31 384.32 30.1899 398.55 30.1899C404.35 30.1899 409.14 31.1899 413.08 33.4299L407.21 44.36Z" fill="#41E9D3"/>
<path fill-rule="evenodd" clip-rule="evenodd" d="M54.2473 79.3756C57.8278 83.1059 63.033 85.26 69.9203 85.26C96.1403 85.26 103.64 58.5801 103.64 42.8401C103.64 29.0401 96.6003 19.3101 81.9703 19.3101C56.0303 19.3101 48.2502 45.71 48.2502 61.64C48.2502 64.1594 48.4815 66.5414 48.9473 68.7531L41.04 85.0801L54.2473 79.3756ZM131.34 85.26H144.1L154.47 32.04H139.24L135.99 48.8201C135.599 50.7361 135.315 52.6725 135.14 54.6201H134.99C134.52 53.0001 133.91 51.2201 133.21 49.4401L126 32.1001H111.62L101.26 85.3H116.49L120.35 65.51C120.745 63.527 121.032 61.5241 121.21 59.51H121.37C121.771 61.3521 122.312 63.1608 122.99 64.92L131.34 85.26ZM188.32 44.05H176.64L174.94 52.63H184.76L182.52 64.3101H172.7L170.92 73.3101H182.6L180.28 85.3101H150.66L161.02 32.1101H190.64L188.32 44.05Z" fill="#F3F3F3"/>
</svg>
