<svg width="79" height="13" viewBox="0 0 79 13" fill="none" xmlns="http://www.w3.org/2000/svg">
<g opacity="0.7">
<path d="M0.0486506 10H1.36541V6.93182H3.15518C5.17933 6.93182 6.18075 5.70881 6.18075 4.09801C6.18075 2.49148 5.18786 1.27273 3.15945 1.27273H0.0486506V10ZM1.36541 5.81534V2.40199H3.01882C4.3228 2.40199 4.85547 3.10938 4.85547 4.09801C4.85547 5.08665 4.3228 5.81534 3.03587 5.81534H1.36541ZM7.62216 10H8.89631V6.00284C8.89631 5.14631 9.55682 4.52841 10.4602 4.52841C10.7244 4.52841 11.0227 4.57528 11.125 4.60511V3.38636C10.9972 3.36932 10.7457 3.35653 10.5838 3.35653C9.81676 3.35653 9.16051 3.79119 8.92188 4.49432H8.85369V3.45455H7.62216V10ZM12.2276 10H13.5018V3.45455H12.2276V10ZM12.8711 2.4446C13.31 2.4446 13.6765 2.10369 13.6765 1.68608C13.6765 1.26847 13.31 0.923295 12.8711 0.923295C12.4279 0.923295 12.0657 1.26847 12.0657 1.68608C12.0657 2.10369 12.4279 2.4446 12.8711 2.4446ZM20.8153 3.45455H19.4474L17.794 8.49148H17.7259L16.0682 3.45455H14.7003L17.0781 10H18.4418L20.8153 3.45455ZM23.7184 10.1449C24.8008 10.1449 25.4102 9.59517 25.6531 9.10511H25.7042V10H26.9485V5.65341C26.9485 3.74858 25.4485 3.36932 24.4087 3.36932C23.2241 3.36932 22.1332 3.84659 21.707 5.03977L22.9045 5.3125C23.092 4.84801 23.5692 4.40057 24.4258 4.40057C25.2482 4.40057 25.6701 4.83097 25.6701 5.57244V5.60227C25.6701 6.06676 25.1928 6.05824 24.0167 6.1946C22.7766 6.33949 21.5067 6.66335 21.5067 8.15057C21.5067 9.4375 22.4741 10.1449 23.7184 10.1449ZM23.9954 9.12216C23.2752 9.12216 22.7553 8.7983 22.7553 8.16761C22.7553 7.4858 23.3604 7.2429 24.0977 7.14489C24.511 7.08949 25.4911 6.97869 25.6744 6.79545V7.6392C25.6744 8.41477 25.0565 9.12216 23.9954 9.12216ZM31.4027 10.1321C32.9496 10.1321 33.951 9.20312 34.0916 7.92898H32.8516C32.6896 8.63636 32.1399 9.05398 31.4112 9.05398C30.3331 9.05398 29.6385 8.15483 29.6385 6.72727C29.6385 5.32528 30.3459 4.44318 31.4112 4.44318C32.2209 4.44318 32.7152 4.95455 32.8516 5.56818H34.0916C33.9553 4.24716 32.8771 3.36932 31.3899 3.36932C29.5447 3.36932 28.3516 4.75852 28.3516 6.7571C28.3516 8.73011 29.5021 10.1321 31.4027 10.1321ZM36.2596 12.4545C37.3121 12.4545 37.9769 11.9048 38.3562 10.8736L41.0621 3.46733L39.6857 3.45455L38.0281 8.53409H37.9599L36.3022 3.45455H34.9386L37.3335 10.0852L37.1758 10.5199C36.8519 11.3892 36.396 11.4616 35.6971 11.2699L35.3903 12.3139C35.5437 12.3821 35.8761 12.4545 36.2596 12.4545ZM45.5408 10H46.8576V6.93182H48.6474C50.6715 6.93182 51.6729 5.70881 51.6729 4.09801C51.6729 2.49148 50.68 1.27273 48.6516 1.27273H45.5408V10ZM46.8576 5.81534V2.40199H48.511C49.815 2.40199 50.3477 3.10938 50.3477 4.09801C50.3477 5.08665 49.815 5.81534 48.5281 5.81534H46.8576ZM55.7894 10.1321C57.6346 10.1321 58.8406 8.78125 58.8406 6.7571C58.8406 4.72017 57.6346 3.36932 55.7894 3.36932C53.9442 3.36932 52.7383 4.72017 52.7383 6.7571C52.7383 8.78125 53.9442 10.1321 55.7894 10.1321ZM55.7937 9.0625C54.5877 9.0625 54.0252 8.00994 54.0252 6.75284C54.0252 5.5 54.5877 4.43466 55.7937 4.43466C56.9911 4.43466 57.5536 5.5 57.5536 6.75284C57.5536 8.00994 56.9911 9.0625 55.7937 9.0625ZM61.5369 1.27273H60.2628V10H61.5369V1.27273ZM63.2511 10H64.5252V3.45455H63.2511V10ZM63.8945 2.4446C64.3335 2.4446 64.6999 2.10369 64.6999 1.68608C64.6999 1.26847 64.3335 0.923295 63.8945 0.923295C63.4513 0.923295 63.0891 1.26847 63.0891 1.68608C63.0891 2.10369 63.4513 2.4446 63.8945 2.4446ZM68.9964 10.1321C70.5433 10.1321 71.5447 9.20312 71.6854 7.92898H70.4453C70.2834 8.63636 69.7337 9.05398 69.005 9.05398C67.9268 9.05398 67.2322 8.15483 67.2322 6.72727C67.2322 5.32528 67.9396 4.44318 69.005 4.44318C69.8146 4.44318 70.3089 4.95455 70.4453 5.56818H71.6854C71.549 4.24716 70.4709 3.36932 68.9837 3.36932C67.1385 3.36932 65.9453 4.75852 65.9453 6.7571C65.9453 8.73011 67.0959 10.1321 68.9964 10.1321ZM73.8533 12.4545C74.9059 12.4545 75.5707 11.9048 75.9499 10.8736L78.6559 3.46733L77.2795 3.45455L75.6218 8.53409H75.5536L73.896 3.45455H72.5323L74.9272 10.0852L74.7695 10.5199C74.4457 11.3892 73.9897 11.4616 73.2908 11.2699L72.984 12.3139C73.1374 12.3821 73.4698 12.4545 73.8533 12.4545Z" fill="white"/>
<path d="M-0.910156 12.3991H78.9968V13.3281H-0.910156V12.3991Z" fill="white"/>
</g>
</svg>
