<svg width="118" height="11" viewBox="0 0 118 11" fill="none" xmlns="http://www.w3.org/2000/svg">
<g opacity="0.7">
<path d="M0.262784 2.40625H2.98153V10H4.29403V2.40625H7.01705V1.27273H0.262784V2.40625ZM10.2791 10.1321C11.7067 10.1321 12.7166 9.42898 13.0064 8.36364L11.8004 8.14631C11.5703 8.7642 11.0163 9.07955 10.2919 9.07955C9.20099 9.07955 8.46804 8.37216 8.43395 7.1108H13.0874V6.65909C13.0874 4.29403 11.6726 3.36932 10.1896 3.36932C8.36577 3.36932 7.16406 4.75852 7.16406 6.76989C7.16406 8.80256 8.34872 10.1321 10.2791 10.1321ZM8.43821 6.15625C8.48935 5.22727 9.16264 4.42188 10.1982 4.42188C11.1868 4.42188 11.8345 5.15483 11.8388 6.15625H8.43821ZM14.5011 10H15.7752V6.00284C15.7752 5.14631 16.4357 4.52841 17.3391 4.52841C17.6033 4.52841 17.9016 4.57528 18.0039 4.60511V3.38636C17.8761 3.36932 17.6246 3.35653 17.4627 3.35653C16.6957 3.35653 16.0394 3.79119 15.8008 4.49432H15.7326V3.45455H14.5011V10ZM19.1065 10H20.3807V5.96449C20.3807 5.08239 20.9986 4.46875 21.723 4.46875C22.4304 4.46875 22.9205 4.9375 22.9205 5.64915V10H24.1903V5.82812C24.1903 5.03977 24.6719 4.46875 25.5028 4.46875C26.1761 4.46875 26.7301 4.84375 26.7301 5.73011V10H28.0043V5.6108C28.0043 4.11506 27.169 3.36932 25.9844 3.36932C25.0426 3.36932 24.3352 3.82102 24.0199 4.51989H23.9517C23.6662 3.80398 23.0653 3.36932 22.1918 3.36932C21.3267 3.36932 20.6832 3.79972 20.4105 4.51989H20.3295V3.45455H19.1065V10ZM34.6168 5.05256C34.3526 4.03409 33.5558 3.36932 32.141 3.36932C30.6623 3.36932 29.614 4.14915 29.614 5.30824C29.614 6.23722 30.1765 6.85511 31.4038 7.12784L32.5117 7.37074C33.1424 7.51136 33.4364 7.79261 33.4364 8.2017C33.4364 8.70881 32.8952 9.10511 32.06 9.10511C31.2972 9.10511 30.8072 8.77699 30.6538 8.13352L29.4222 8.32102C29.6353 9.48011 30.5984 10.1321 32.0685 10.1321C33.6495 10.1321 34.7447 9.29261 34.7447 8.10795C34.7447 7.18324 34.1566 6.61222 32.9549 6.33523L31.9151 6.09659C31.195 5.92614 30.8839 5.68324 30.8881 5.24006C30.8839 4.73722 31.4293 4.37926 32.1538 4.37926C32.9464 4.37926 33.3129 4.81818 33.462 5.2571L34.6168 5.05256ZM41.2262 10.1449C42.3086 10.1449 42.918 9.59517 43.1609 9.10511H43.212V10H44.4563V5.65341C44.4563 3.74858 42.9563 3.36932 41.9165 3.36932C40.7319 3.36932 39.641 3.84659 39.2148 5.03977L40.4123 5.3125C40.5998 4.84801 41.0771 4.40057 41.9336 4.40057C42.756 4.40057 43.1779 4.83097 43.1779 5.57244V5.60227C43.1779 6.06676 42.7006 6.05824 41.5245 6.1946C40.2844 6.33949 39.0146 6.66335 39.0146 8.15057C39.0146 9.4375 39.9819 10.1449 41.2262 10.1449ZM41.5032 9.12216C40.783 9.12216 40.2631 8.7983 40.2631 8.16761C40.2631 7.4858 40.8683 7.2429 41.6055 7.14489C42.0188 7.08949 42.9989 6.97869 43.1822 6.79545V7.6392C43.1822 8.41477 42.5643 9.12216 41.5032 9.12216ZM47.4276 6.11364C47.4276 5.0696 48.0668 4.47301 48.9531 4.47301C49.8182 4.47301 50.3423 5.03977 50.3423 5.99006V10H51.6165V5.83665C51.6165 4.21733 50.7259 3.36932 49.3878 3.36932C48.4034 3.36932 47.7599 3.82528 47.4574 4.51989H47.3764V3.45455H46.1534V10H47.4276V6.11364ZM55.7756 10.1278C56.9688 10.1278 57.4375 9.39915 57.6676 8.98153H57.7741V10H59.0185V1.27273H57.7443V4.51562H57.6676C57.4375 4.1108 57.0028 3.36932 55.7841 3.36932C54.2031 3.36932 53.0398 4.6179 53.0398 6.74006C53.0398 8.85795 54.1861 10.1278 55.7756 10.1278ZM56.0568 9.04119C54.919 9.04119 54.3267 8.03977 54.3267 6.72727C54.3267 5.42756 54.9062 4.4517 56.0568 4.4517C57.169 4.4517 57.7656 5.35938 57.7656 6.72727C57.7656 8.10369 57.1562 9.04119 56.0568 9.04119ZM71.3636 4.1108C71.0653 2.24432 69.6037 1.15341 67.7585 1.15341C65.5 1.15341 63.8338 2.84517 63.8338 5.63636C63.8338 8.42756 65.4915 10.1193 67.7585 10.1193C69.6761 10.1193 71.0781 8.91761 71.3636 7.19176L70.0341 7.1875C69.8082 8.30398 68.8707 8.91761 67.767 8.91761C66.2713 8.91761 65.142 7.77131 65.142 5.63636C65.142 3.51847 66.267 2.35511 67.7713 2.35511C68.8835 2.35511 69.8168 2.98153 70.0341 4.1108H71.3636ZM75.5941 10.1321C77.4393 10.1321 78.6452 8.78125 78.6452 6.7571C78.6452 4.72017 77.4393 3.36932 75.5941 3.36932C73.7489 3.36932 72.543 4.72017 72.543 6.7571C72.543 8.78125 73.7489 10.1321 75.5941 10.1321ZM75.5984 9.0625C74.3924 9.0625 73.8299 8.00994 73.8299 6.75284C73.8299 5.5 74.3924 4.43466 75.5984 4.43466C76.7958 4.43466 77.3583 5.5 77.3583 6.75284C77.3583 8.00994 76.7958 9.0625 75.5984 9.0625ZM82.5178 10.1278C83.7109 10.1278 84.1797 9.39915 84.4098 8.98153H84.5163V10H85.7607V1.27273H84.4865V4.51562H84.4098C84.1797 4.1108 83.745 3.36932 82.5263 3.36932C80.9453 3.36932 79.782 4.6179 79.782 6.74006C79.782 8.85795 80.9283 10.1278 82.5178 10.1278ZM82.799 9.04119C81.6612 9.04119 81.0689 8.03977 81.0689 6.72727C81.0689 5.42756 81.6484 4.4517 82.799 4.4517C83.9112 4.4517 84.5078 5.35938 84.5078 6.72727C84.5078 8.10369 83.8984 9.04119 82.799 9.04119ZM87.5792 10H88.8533V3.45455H87.5792V10ZM88.2227 2.4446C88.6616 2.4446 89.0281 2.10369 89.0281 1.68608C89.0281 1.26847 88.6616 0.923295 88.2227 0.923295C87.7795 0.923295 87.4173 1.26847 87.4173 1.68608C87.4173 2.10369 87.7795 2.4446 88.2227 2.4446ZM93.6229 3.45455H92.2805V1.88636H91.0064V3.45455H90.0476V4.47727H91.0064V8.34233C91.0021 9.53125 91.9098 10.1065 92.9155 10.0852C93.3203 10.081 93.593 10.0043 93.7422 9.94886L93.5121 8.89631C93.4268 8.91335 93.2692 8.9517 93.0646 8.9517C92.6513 8.9517 92.2805 8.81534 92.2805 8.07812V4.47727H93.6229V3.45455ZM95.0323 10H96.3065V3.45455H95.0323V10ZM95.6758 2.4446C96.1147 2.4446 96.4812 2.10369 96.4812 1.68608C96.4812 1.26847 96.1147 0.923295 95.6758 0.923295C95.2326 0.923295 94.8704 1.26847 94.8704 1.68608C94.8704 2.10369 95.2326 2.4446 95.6758 2.4446ZM100.778 10.1321C102.623 10.1321 103.829 8.78125 103.829 6.7571C103.829 4.72017 102.623 3.36932 100.778 3.36932C98.9325 3.36932 97.7266 4.72017 97.7266 6.7571C97.7266 8.78125 98.9325 10.1321 100.778 10.1321ZM100.782 9.0625C99.576 9.0625 99.0135 8.00994 99.0135 6.75284C99.0135 5.5 99.576 4.43466 100.782 4.43466C101.979 4.43466 102.542 5.5 102.542 6.75284C102.542 8.00994 101.979 9.0625 100.782 9.0625ZM106.525 6.11364C106.525 5.0696 107.164 4.47301 108.051 4.47301C108.916 4.47301 109.44 5.03977 109.44 5.99006V10H110.714V5.83665C110.714 4.21733 109.824 3.36932 108.485 3.36932C107.501 3.36932 106.858 3.82528 106.555 4.51989H106.474V3.45455H105.251V10H106.525V6.11364ZM117.328 5.05256C117.064 4.03409 116.267 3.36932 114.852 3.36932C113.373 3.36932 112.325 4.14915 112.325 5.30824C112.325 6.23722 112.887 6.85511 114.115 7.12784L115.223 7.37074C115.853 7.51136 116.147 7.79261 116.147 8.2017C116.147 8.70881 115.606 9.10511 114.771 9.10511C114.008 9.10511 113.518 8.77699 113.365 8.13352L112.133 8.32102C112.346 9.48011 113.309 10.1321 114.779 10.1321C116.36 10.1321 117.456 9.29261 117.456 8.10795C117.456 7.18324 116.868 6.61222 115.666 6.33523L114.626 6.09659C113.906 5.92614 113.595 5.68324 113.599 5.24006C113.595 4.73722 114.14 4.37926 114.865 4.37926C115.657 4.37926 116.024 4.81818 116.173 5.2571L117.328 5.05256Z" fill="white"/>
<path d="M-0.265625 12.3991H117.997V13.3281H-0.265625V12.3991Z" fill="white"/>
</g>
</svg>
