<svg width="234" height="56" viewBox="0 0 234 56" fill="none" xmlns="http://www.w3.org/2000/svg">
<path fill-rule="evenodd" clip-rule="evenodd" d="M230.976 47.3333C229.667 47.3333 228.616 48.4167 228.616 49.7567C228.616 51.1042 229.667 52.1878 230.976 52.1878C232.278 52.1878 233.32 51.1044 233.32 49.7567C233.32 48.4167 232.278 47.3333 230.976 47.3333ZM230.976 51.8313C229.902 51.8313 229.008 50.883 229.008 49.7567C229.008 48.5311 230.027 47.6897 230.976 47.6897C231.893 47.6897 232.929 48.5311 232.929 49.7567C232.929 50.9691 231.972 51.8313 230.976 51.8313ZM232.168 49.1224C232.168 48.6236 231.855 48.4023 231.243 48.4023H230.106V51.1183H230.498V49.8637H230.937L231.682 51.1183H232.145L231.352 49.8637C231.815 49.8497 232.168 49.6498 232.168 49.1224ZM231.211 49.5072H230.498V48.7588H231.172C231.501 48.7588 231.776 48.7802 231.776 49.1083C231.776 49.429 231.533 49.5072 231.211 49.5072Z" fill="#F3F3F3"/>
<path d="M79.0435 3.9881L74.522 28.1835L70.1228 3.9881H60.2246L72.2002 52.1348H74.522L86.3755 3.9881H79.0435ZM124.38 3.9881H115.215V52.1348H132.078L134.156 45.4136H124.38V3.9881ZM96.2737 3.9881L84.0537 52.1348H91.1413L92.1189 47.3688H100.062L100.917 52.1348H110.693L98.4734 3.9881H96.2737ZM93.341 41.7476L96.2737 28.3058L98.9622 41.7476H93.341ZM137.577 52.1348H146.62V3.9881H137.577V52.1348ZM194.034 25.6173L182.669 3.9881H180.103V52.1348H186.824V29.1611L198.555 52.1348H200.999V3.9881H194.034V25.6173ZM162.629 3.9881L150.409 52.1348H157.496L158.474 47.3688H166.417L167.272 52.1348H177.048L164.828 3.9881H162.629ZM159.696 41.7476L162.629 28.3058L165.317 41.7476H159.696ZM206.132 3.9881V10.7087H211.875V52.1348H220.674V10.7087H225.562L228.005 3.9881H206.132Z" fill="#F3F3F3"/>
<path d="M25.3262 9.39612C14.5178 9.39612 5.75586 18.158 5.75586 28.9664C5.75586 39.7747 14.5177 48.5366 25.3262 48.5366C36.1345 48.5366 44.8965 39.7747 44.8965 28.9664C44.8965 18.158 36.1345 9.39612 25.3262 9.39612ZM25.3262 46.6428C15.5637 46.6428 7.64972 38.7288 7.64972 28.9664C7.64972 19.204 15.5637 11.29 25.3262 11.29C35.0885 11.29 43.0026 19.204 43.0026 28.9664C43.0026 38.7288 35.0885 46.6428 25.3262 46.6428Z" fill="#F3F3F3"/>
<path d="M28.8713 25.4207L25.3263 3.63947V24.8437L0 28.9658H50.6525L28.8713 25.4207Z" fill="#F3F3F3"/>
<path d="M25.3263 28.9658V3.63947L21.2042 28.9658H0L25.3263 33.0878L50.6525 28.9658H25.3263Z" fill="#252E39"/>
<path fill-rule="evenodd" clip-rule="evenodd" d="M25.3263 28.9656L3.45361 0L25.3263 56L47.199 0L25.3263 28.9656Z" fill="#F3F3F3"/>
<path d="M25.3263 28.9656V40.1061L47.199 0L25.3263 28.9656ZM25.3263 56V40.1061L3.45361 0L25.3263 56Z" fill="#252E39"/>
</svg>
